<?xml version="1.0" encoding="UTF-8"?>
<svg xmlns="http://www.w3.org/2000/svg" width="800" height="800" viewBox="-400 -400 800 800" style="font-family: sans-serif; font-size: 10px;"><g><path d="M0,-62.5A62.5,62.5,0,0,1,52.77,33.489L0,0Z" fill="#3498DB" stroke="#fff" stroke-width="1"><title>Commutative Algebra
34</title></path><path d="M52.77,33.489A62.5,62.5,0,1,1,0,-62.5L0,0Z" fill="#E67E22" stroke="#fff" stroke-width="1"><title>Abstract Algebra
66</title></path><path d="M0,-125A125,125,0,0,1,122.786,-23.423L61.393,-11.711A62.5,62.5,0,0,0,0,-62.5Z" fill="#9B59B6" stroke="#fff" stroke-width="1"><title>Commutative Algebra / Ideal Theory
22</title></path><path d="M122.786,-23.423A125,125,0,0,1,122.786,23.423L61.393,11.711A62.5,62.5,0,0,0,61.393,-11.711Z" fill="#3498DB" stroke="#fff" stroke-width="1"><title>Commutative Algebra / Dimension Theory and Smoothness
6</title></path><path d="M122.786,23.423A125,125,0,0,1,105.541,66.978L52.77,33.489A62.5,62.5,0,0,0,61.393,11.711Z" fill="#27AE60" stroke="#fff" stroke-width="1"><title>Commutative Algebra / Other Topics
6</title></path><path d="M105.541,66.978A125,125,0,0,1,85.568,91.121L42.784,45.561A62.5,62.5,0,0,0,52.77,33.489Z" fill="#B4DC0D" stroke="#fff" stroke-width="1"><title>Abstract Algebra / Other Topics
4</title></path><path d="M85.568,91.121A125,125,0,0,1,-121.073,31.086L-60.536,15.543A62.5,62.5,0,0,0,42.784,45.561Z" fill="#F1C40F" stroke="#fff" stroke-width="1"><title>Abstract Algebra / Field Theory
33</title></path><path d="M-121.073,31.086A125,125,0,0,1,-79.678,-96.314L-39.839,-48.157A62.5,62.5,0,0,0,-60.536,15.543Z" fill="#F39C12" stroke="#fff" stroke-width="1"><title>Abstract Algebra / Group Theory
18</title></path><path d="M-79.678,-96.314A125,125,0,0,1,0,-125L0,-62.5A62.5,62.5,0,0,0,-39.839,-48.157Z" fill="#E74C3C" stroke="#fff" stroke-width="1"><title>Abstract Algebra / Ring Theory
11</title></path><path d="M0,-250A250,250,0,0,1,77.254,-237.764L38.627,-118.882A125,125,0,0,0,0,-125Z" fill="#744389" stroke="#fff" stroke-width="1"><title>Commutative Algebra / Ideal Theory / Ideals and Modules
5</title></path><path d="M77.254,-237.764A250,250,0,0,1,120.438,-219.077L60.219,-109.538A125,125,0,0,0,38.627,-118.882Z" fill="#814a97" stroke="#fff" stroke-width="1"><title>Commutative Algebra / Ideal Theory / Localization and Decomposition of Ideals
3</title></path><path d="M120.438,-219.077A250,250,0,0,1,202.254,-146.946L101.127,-73.473A125,125,0,0,0,60.219,-109.538Z" fill="#8d51a6" stroke="#fff" stroke-width="1"><title>Commutative Algebra / Ideal Theory / Integral Dependence and the Nullstellensatz
7</title></path><path d="M202.254,-146.946A250,250,0,0,1,211.082,-133.957L105.541,-66.978A125,125,0,0,0,101.127,-73.473Z" fill="#9958b4" stroke="#fff" stroke-width="1"><title>Commutative Algebra / Ideal Theory / Noetherian rings and Chain Conditions
1</title></path><path d="M211.082,-133.957A250,250,0,0,1,237.764,-77.254L118.882,-38.627A125,125,0,0,0,105.541,-66.978Z" fill="#a65fc3" stroke="#fff" stroke-width="1"><title>Commutative Algebra / Ideal Theory / Dedekind Domains and DVRs
4</title></path><path d="M237.764,-77.254A250,250,0,0,1,245.572,-46.845L122.786,-23.423A125,125,0,0,0,118.882,-38.627Z" fill="#b266d1" stroke="#fff" stroke-width="1"><title>Commutative Algebra / Ideal Theory / Tensor Product and Flatness
2</title></path><path d="M245.572,-46.845A250,250,0,0,1,249.507,-15.698L124.753,-7.849A125,125,0,0,0,122.786,-23.423Z" fill="#2772a4" stroke="#fff" stroke-width="1"><title>Commutative Algebra / Dimension Theory and Smoothness / Heights and Dimensions
2</title></path><path d="M249.507,-15.698A250,250,0,0,1,245.572,46.845L122.786,23.423A125,125,0,0,0,124.753,-7.849Z" fill="#2b7eb6" stroke="#fff" stroke-width="1"><title>Commutative Algebra / Dimension Theory and Smoothness / Regular Sequences and Regular Local Rings
4</title></path><path d="M245.572,46.845A250,250,0,0,1,242.146,62.172L121.073,31.086A125,125,0,0,0,122.786,23.423Z" fill="#1d8348" stroke="#fff" stroke-width="1"><title>Commutative Algebra / Other Topics / Completions and Hensel's lemma
1</title></path><path d="M242.146,62.172A250,250,0,0,1,211.082,133.957L105.541,66.978A125,125,0,0,0,121.073,31.086Z" fill="#209050" stroke="#fff" stroke-width="1"><title>Commutative Algebra / Other Topics / Algebraic Number Theory and Valuation Theory
5</title></path><path d="M211.082,133.957A250,250,0,0,1,182.242,171.137L91.121,85.568A125,125,0,0,0,105.541,66.978Z" fill="#87a50a" stroke="#fff" stroke-width="1"><title>Abstract Algebra / Other Topics / Linear Algebra
3</title></path><path d="M182.242,171.137A250,250,0,0,1,171.137,182.242L85.568,91.121A125,125,0,0,0,91.121,85.568Z" fill="#95b70b" stroke="#fff" stroke-width="1"><title>Abstract Algebra / Other Topics / Elementary Number Theory
1</title></path><path d="M171.137,182.242A250,250,0,0,1,15.698,249.507L7.849,124.753A125,125,0,0,0,85.568,91.121Z" fill="#b5930b" stroke="#fff" stroke-width="1"><title>Abstract Algebra / Field Theory / Field Extensions
11</title></path><path d="M15.698,249.507A250,250,0,0,1,-146.946,202.254L-73.473,101.127A125,125,0,0,0,7.849,124.753Z" fill="#c8a30c" stroke="#fff" stroke-width="1"><title>Abstract Algebra / Field Theory / Galois theory
11</title></path><path d="M-146.946,202.254A250,250,0,0,1,-242.146,62.172L-121.073,31.086A125,125,0,0,0,-73.473,101.127Z" fill="#dbb20e" stroke="#fff" stroke-width="1"><title>Abstract Algebra / Field Theory / Explicit Computations
11</title></path><path d="M-242.146,62.172A250,250,0,0,1,-250,0L-125,0A125,125,0,0,0,-121.073,31.086Z" fill="#b6750e" stroke="#fff" stroke-width="1"><title>Abstract Algebra / Group Theory / Basic Axioms and Examples
4</title></path><path d="M-250,0A250,250,0,0,1,-245.572,-46.845L-122.786,-23.423A125,125,0,0,0,-125,0Z" fill="#ca810f" stroke="#fff" stroke-width="1"><title>Abstract Algebra / Group Theory / Subgroups and Quotient groups
3</title></path><path d="M-245.572,-46.845A250,250,0,0,1,-182.242,-171.137L-91.121,-85.568A125,125,0,0,0,-122.786,-23.423Z" fill="#dd8e10" stroke="#fff" stroke-width="1"><title>Abstract Algebra / Group Theory / Group Actions and Sylow theorems
9</title></path><path d="M-182.242,-171.137A250,250,0,0,1,-159.356,-192.628L-79.678,-96.314A125,125,0,0,0,-91.121,-85.568Z" fill="#f19a12" stroke="#fff" stroke-width="1"><title>Abstract Algebra / Group Theory / p-Groups, Nilpotent Groups and Solvable Groups
2</title></path><path d="M-159.356,-192.628A250,250,0,0,1,-133.957,-211.082L-66.978,-105.541A125,125,0,0,0,-79.678,-96.314Z" fill="#ad392d" stroke="#fff" stroke-width="1"><title>Abstract Algebra / Ring Theory / Basic Definitions and Examples
2</title></path><path d="M-133.957,-211.082A250,250,0,0,1,-120.438,-219.077L-60.219,-109.538A125,125,0,0,0,-66.978,-105.541Z" fill="#c03f32" stroke="#fff" stroke-width="1"><title>Abstract Algebra / Ring Theory / PID, ED and UFD
1</title></path><path d="M-120.438,-219.077A250,250,0,0,1,0,-250L0,-125A125,125,0,0,0,-60.219,-109.538Z" fill="#d24537" stroke="#fff" stroke-width="1"><title>Abstract Algebra / Ring Theory / Polynomials
8</title></path><text transform="rotate(-28.79999999999999) translate(31.25,0) rotate(90)" dy="0.35em" text-anchor="middle" font-size="10px" style="pointer-events: none; fill: rgb(255, 255, 255); font-weight: bold; text-shadow: rgba(0, 0, 0, 0.8) 0.625px 0.625px 1.25px;"><tspan x="0" dy="0">Commutative</tspan><tspan x="0" dy="1.2em">Algebra</tspan></text><text transform="rotate(151.20000000000007) translate(31.25,0) rotate(270)" dy="0.35em" text-anchor="middle" font-size="10px" style="pointer-events: none; fill: rgb(255, 255, 255); font-weight: bold; text-shadow: rgba(0, 0, 0, 0.8) 0.625px 0.625px 1.25px;"><tspan x="0" dy="0">Abstract</tspan><tspan x="0" dy="1.2em">Algebra</tspan></text><text transform="rotate(-50.39999999999999) translate(93.75,0) rotate(90)" dy="0.35em" text-anchor="middle" font-size="8.75px" style="pointer-events: none; fill: rgb(255, 255, 255); font-weight: bold; text-shadow: rgba(0, 0, 0, 0.8) 0.625px 0.625px 1.25px;">Ideal Theory</text><text transform="rotate(1.4210854715202004e-14) translate(93.75,0) rotate(0)" dy="0.35em" text-anchor="middle" font-size="6.25px" style="pointer-events: none; fill: rgb(255, 255, 255); font-weight: bold; text-shadow: rgba(0, 0, 0, 0.8) 0.625px 0.625px 1.25px;"><tspan x="0" dy="0">Dimension Theory</tspan><tspan x="0" dy="1.2em">and Smoothness</tspan></text><text transform="rotate(21.600000000000023) translate(93.75,0) rotate(0)" dy="0.35em" text-anchor="middle" font-size="8.75px" style="pointer-events: none; fill: rgb(255, 255, 255); font-weight: bold; text-shadow: rgba(0, 0, 0, 0.8) 0.625px 0.625px 1.25px;">Other Topics</text><text transform="rotate(39.60000000000002) translate(93.75,0) rotate(0)" dy="0.35em" text-anchor="middle" font-size="8.4375px" style="pointer-events: none; fill: rgb(255, 255, 255); font-weight: bold; text-shadow: rgba(0, 0, 0, 0.8) 0.625px 0.625px 1.25px;">Other Topics</text><text transform="rotate(106.20000000000002) translate(93.75,0) rotate(270)" dy="0.35em" text-anchor="middle" font-size="8.75px" style="pointer-events: none; fill: rgb(255, 255, 255); font-weight: bold; text-shadow: rgba(0, 0, 0, 0.8) 0.625px 0.625px 1.25px;">Field Theory</text><text transform="rotate(198) translate(93.75,0) rotate(90)" dy="0.35em" text-anchor="middle" font-size="8.75px" style="pointer-events: none; fill: rgb(255, 255, 255); font-weight: bold; text-shadow: rgba(0, 0, 0, 0.8) 0.625px 0.625px 1.25px;">Group Theory</text><text transform="rotate(250.2) translate(93.75,0) rotate(90)" dy="0.35em" text-anchor="middle" font-size="8.75px" style="pointer-events: none; fill: rgb(255, 255, 255); font-weight: bold; text-shadow: rgba(0, 0, 0, 0.8) 0.625px 0.625px 1.25px;">Ring Theory</text><text transform="rotate(-81) translate(187.5,0) rotate(0)" dy="0.35em" text-anchor="middle" font-size="9.375px" style="pointer-events: none; fill: rgb(255, 255, 255); font-weight: bold; text-shadow: rgba(0, 0, 0, 0.8) 0.625px 0.625px 1.25px;">Ideals and Modules</text><text transform="rotate(-66.6) translate(187.5,0) rotate(0)" dy="0.35em" text-anchor="middle" font-size="5px" style="pointer-events: none; fill: rgb(255, 255, 255); font-weight: bold; text-shadow: rgba(0, 0, 0, 0.8) 0.625px 0.625px 1.25px;">Localization and Decomposition of Ideals</text><text transform="rotate(-48.599999999999994) translate(187.5,0) rotate(0)" dy="0.35em" text-anchor="middle" font-size="5.9765625px" style="pointer-events: none; fill: rgb(255, 255, 255); font-weight: bold; text-shadow: rgba(0, 0, 0, 0.8) 0.625px 0.625px 1.25px;"><tspan x="0" dy="0">Integral Dependence and</tspan><tspan x="0" dy="1.1em">the Nullstellensatz</tspan></text><text transform="rotate(-34.2) translate(187.5,0) rotate(0)" dy="0.35em" text-anchor="middle" font-size="5px" style="pointer-events: none; fill: rgb(255, 255, 255); font-weight: bold; text-shadow: rgba(0, 0, 0, 0.8) 0.625px 0.625px 1.25px;">Noetherian rings and Chain Conditions</text><text transform="rotate(-25.19999999999999) translate(187.5,0) rotate(0)" dy="0.35em" text-anchor="middle" font-size="7.03125px" style="pointer-events: none; fill: rgb(255, 255, 255); font-weight: bold; text-shadow: rgba(0, 0, 0, 0.8) 0.625px 0.625px 1.25px;">Dedekind Domains and DVRs</text><text transform="rotate(-14.399999999999991) translate(187.5,0) rotate(0)" dy="0.35em" text-anchor="middle" font-size="5px" style="pointer-events: none; fill: rgb(255, 255, 255); font-weight: bold; text-shadow: rgba(0, 0, 0, 0.8) 0.625px 0.625px 1.25px;">Tensor Product and Flatness</text><text transform="rotate(-7.199999999999989) translate(187.5,0) rotate(0)" dy="0.35em" text-anchor="middle" font-size="5px" style="pointer-events: none; fill: rgb(255, 255, 255); font-weight: bold; text-shadow: rgba(0, 0, 0, 0.8) 0.625px 0.625px 1.25px;">Heights and Dimensions</text><text transform="rotate(3.6000000000000085) translate(187.5,0) rotate(0)" dy="0.35em" text-anchor="middle" font-size="5px" style="pointer-events: none; fill: rgb(255, 255, 255); font-weight: bold; text-shadow: rgba(0, 0, 0, 0.8) 0.625px 0.625px 1.25px;"><tspan x="0" dy="0">Regular Sequences and</tspan><tspan x="0" dy="1.1em">Regular Local Rings</tspan></text><text transform="rotate(12.600000000000009) translate(187.5,0) rotate(0)" dy="0.35em" text-anchor="middle" font-size="5px" style="pointer-events: none; fill: rgb(255, 255, 255); font-weight: bold; text-shadow: rgba(0, 0, 0, 0.8) 0.625px 0.625px 1.25px;">Completions and Hensel's lemma</text><text transform="rotate(23.40000000000002) translate(187.5,0) rotate(0)" dy="0.35em" text-anchor="middle" font-size="5.9765625px" style="pointer-events: none; fill: rgb(255, 255, 255); font-weight: bold; text-shadow: rgba(0, 0, 0, 0.8) 0.625px 0.625px 1.25px;"><tspan x="0" dy="0">Algebraic Number Theory</tspan><tspan x="0" dy="1.1em">and Valuation Theory</tspan></text><text transform="rotate(37.80000000000001) translate(187.5,0) rotate(0)" dy="0.35em" text-anchor="middle" font-size="7.03125px" style="pointer-events: none; fill: rgb(255, 255, 255); font-weight: bold; text-shadow: rgba(0, 0, 0, 0.8) 0.625px 0.625px 1.25px;">Linear Algebra</text><text transform="rotate(45) translate(187.5,0) rotate(0)" dy="0.35em" text-anchor="middle" font-size="5px" style="pointer-events: none; fill: rgb(255, 255, 255); font-weight: bold; text-shadow: rgba(0, 0, 0, 0.8) 0.625px 0.625px 1.25px;">Elementary Number Theory</text><text transform="rotate(66.60000000000002) translate(187.5,0) rotate(0)" dy="0.35em" text-anchor="middle" font-size="9.375px" style="pointer-events: none; fill: rgb(255, 255, 255); font-weight: bold; text-shadow: rgba(0, 0, 0, 0.8) 0.625px 0.625px 1.25px;">Field Extensions</text><text transform="rotate(106.20000000000002) translate(187.5,0) rotate(180)" dy="0.35em" text-anchor="middle" font-size="9.375px" style="pointer-events: none; fill: rgb(255, 255, 255); font-weight: bold; text-shadow: rgba(0, 0, 0, 0.8) 0.625px 0.625px 1.25px;">Galois theory</text><text transform="rotate(145.80000000000004) translate(187.5,0) rotate(180)" dy="0.35em" text-anchor="middle" font-size="9.375px" style="pointer-events: none; fill: rgb(255, 255, 255); font-weight: bold; text-shadow: rgba(0, 0, 0, 0.8) 0.625px 0.625px 1.25px;">Explicit Computations</text><text transform="rotate(172.80000000000007) translate(187.5,0) rotate(180)" dy="0.35em" text-anchor="middle" font-size="7.03125px" style="pointer-events: none; fill: rgb(255, 255, 255); font-weight: bold; text-shadow: rgba(0, 0, 0, 0.8) 0.625px 0.625px 1.25px;">Basic Axioms and Examples</text><text transform="rotate(185.4000000000001) translate(187.5,0) rotate(180)" dy="0.35em" text-anchor="middle" font-size="5.9765625px" style="pointer-events: none; fill: rgb(255, 255, 255); font-weight: bold; text-shadow: rgba(0, 0, 0, 0.8) 0.625px 0.625px 1.25px;">Subgroups and Quotient groups</text><text transform="rotate(207.00000000000006) translate(187.5,0) rotate(180)" dy="0.35em" text-anchor="middle" font-size="7.96875px" style="pointer-events: none; fill: rgb(255, 255, 255); font-weight: bold; text-shadow: rgba(0, 0, 0, 0.8) 0.625px 0.625px 1.25px;"><tspan x="0" dy="0">Group Actions</tspan><tspan x="0" dy="1.1em">and Sylow theorems</tspan></text><text transform="rotate(226.80000000000007) translate(187.5,0) rotate(180)" dy="0.35em" text-anchor="middle" font-size="5px" style="pointer-events: none; fill: rgb(255, 255, 255); font-weight: bold; text-shadow: rgba(0, 0, 0, 0.8) 0.625px 0.625px 1.25px;"><tspan x="0" dy="0">p-Groups, Nilpotent Groups</tspan><tspan x="0" dy="1.1em">and Solvable Groups</tspan></text><text transform="rotate(234) translate(187.5,0) rotate(180)" dy="0.35em" text-anchor="middle" font-size="5px" style="pointer-events: none; fill: rgb(255, 255, 255); font-weight: bold; text-shadow: rgba(0, 0, 0, 0.8) 0.625px 0.625px 1.25px;">Basic Definitions and Examples</text><text transform="rotate(239.39999999999998) translate(187.5,0) rotate(180)" dy="0.35em" text-anchor="middle" font-size="5px" style="pointer-events: none; fill: rgb(255, 255, 255); font-weight: bold; text-shadow: rgba(0, 0, 0, 0.8) 0.625px 0.625px 1.25px;">PID, ED and UFD</text><text transform="rotate(255.60000000000002) translate(187.5,0) rotate(180)" dy="0.35em" text-anchor="middle" font-size="9.375px" style="pointer-events: none; fill: rgb(255, 255, 255); font-weight: bold; text-shadow: rgba(0, 0, 0, 0.8) 0.625px 0.625px 1.25px;">Polynomials</text></g></svg>